<svg 
 xmlns="http://www.w3.org/2000/svg"
 xmlns:xlink="http://www.w3.org/1999/xlink"
 width="963px" height="561px">
<path fill-rule="evenodd"  fill="rgb(115, 71, 193)"
 d="M3.000,-0.000 L963.000,-0.000 L963.000,561.000 L3.000,561.000 L3.000,-0.000 Z"/>
<path fill-rule="evenodd"  opacity="0.302" fill="rgb(96, 10, 145)"
 d="M1.991,550.907 C1.991,550.907 121.618,564.363 236.260,506.056 C236.260,506.056 365.856,435.415 561.246,522.875 C561.246,522.875 694.830,592.395 882.245,502.692 C882.245,502.692 919.130,479.144 961.000,499.328 L961.000,559.877 L0.994,559.877 L1.991,550.907 Z"/>
<path fill-rule="evenodd"  opacity="0.102" fill="rgb(96, 10, 145)"
 d="M-0.000,279.108 C-0.000,279.108 329.000,739.891 960.000,217.999 L960.000,560.999 L-0.000,560.999 L-0.000,279.108 Z"/>
<path fill-rule="evenodd"  opacity="0.102" fill="rgb(96, 10, 145)"
 d="M960.000,376.685 C960.000,376.685 430.000,649.706 -0.000,217.999 L-0.000,560.999 L960.000,560.999 L960.000,376.685 Z"/>
<path fill-rule="evenodd"  opacity="0.2" fill="rgb(96, 10, 145)"
 d="M2.993,435.518 C2.993,435.518 89.084,441.125 219.221,391.780 C219.221,391.780 375.386,325.614 572.595,413.088 C572.595,413.088 795.831,505.048 962.006,396.265 L962.006,560.001 L0.991,560.001 L2.993,435.518 Z"/>
<path fill-rule="evenodd"  opacity="0.149" fill="rgb(96, 10, 145)"
 d="M0.997,368.499 C0.997,368.499 101.893,319.184 241.749,386.431 C241.749,386.431 395.591,469.370 530.452,412.209 C530.452,412.209 802.173,290.043 961.009,392.035 L961.009,559.033 L2.995,559.033 L0.997,368.499 Z"/>
<path fill-rule="evenodd"  opacity="0.102" fill="rgb(96, 10, 145)"
 d="M0.997,340.117 C0.997,340.117 155.837,291.878 297.690,402.941 C297.690,402.941 439.544,509.517 601.377,405.185 C601.377,405.185 771.201,266.075 963.003,334.508 L963.003,560.001 L1.996,560.001 L0.997,340.117 Z"/>
</svg>